<?xml version="1.0" encoding="utf-8"?>
<!-- Generator: Adobe Illustrator 22.0.1, SVG Export Plug-In . SVG Version: 6.00 Build 0)  -->
<svg version="1.1" id="Camada_1" xmlns="http://www.w3.org/2000/svg" xmlns:xlink="http://www.w3.org/1999/xlink" x="0px" y="0px"
	 viewBox="0 0 303.3 51" style="enable-background:new 0 0 303.3 51;" xml:space="preserve">
<style type="text/css">
	.st0{fill:#30314F;}
	.st1{fill:#4362FE;}
	.st2{fill:#FFFFFF;}
</style>
<g>
	<path class="st0" d="M74.5,32.5c-0.7,0.3-2,0.6-3.5,0.6c-4.3,0-7-2.7-7-7.2c0-4.2,2.8-7.5,7.6-7.5c1.1,0,2.2,0.2,3,0.5L73.9,22
		c-0.5-0.2-1.2-0.4-2.2-0.4c-2.2,0-3.6,1.7-3.5,4.1c0,2.6,1.5,4,3.6,4c0.9,0,1.6-0.2,2.2-0.4L74.5,32.5z"/>
	<path class="st0" d="M89.3,25.6c0,5.4-3.5,7.5-6.9,7.5c-3.9,0-6.8-2.7-6.8-7.3c0-4.7,2.9-7.5,7-7.5C86.7,18.3,89.3,21.2,89.3,25.6z
		 M80,25.7c0,2.4,0.8,4.3,2.6,4.3c1.6,0,2.4-1.9,2.4-4.3c0-2.1-0.6-4.3-2.4-4.3C80.6,21.4,80,23.6,80,25.7z"/>
	<path class="st0" d="M91.8,23.2c0-1.9,0-3.3-0.1-4.6h3.7l0.2,2.4h0.1c0.7-1.9,2.3-2.8,3.5-2.8c0.4,0,0.6,0,0.9,0.1v4
		c-0.3-0.1-0.6-0.1-1.1-0.1c-1.4,0-2.5,0.8-2.8,2.2c-0.1,0.3-0.1,0.7-0.1,1.1v7.2h-4.2V23.2z"/>
	<path class="st0" d="M102.1,23.3c0-1.8-0.1-3.3-0.1-4.7h3.7l0.2,1.9h0.1c0.9-1.4,2.4-2.2,4.2-2.2c3.1,0,5.4,2.9,5.4,7.3
		c0,5.1-3,7.5-5.9,7.5c-1.5,0-2.7-0.7-3.3-1.5h-0.1v6.9h-4.2V23.3z M106.4,27c0,0.4,0,0.7,0.1,1c0.3,1.1,1.2,1.8,2.2,1.8
		c1.7,0,2.7-1.7,2.7-4.1c0-2.4-0.9-4-2.6-4c-1,0-2,0.8-2.2,1.9c-0.1,0.3-0.1,0.6-0.1,0.9V27z"/>
	<path class="st0" d="M131.1,25.6c0,5.4-3.5,7.5-6.9,7.5c-3.9,0-6.8-2.7-6.8-7.3c0-4.7,2.9-7.5,7-7.5
		C128.5,18.3,131.1,21.2,131.1,25.6z M121.8,25.7c0,2.4,0.8,4.3,2.6,4.3c1.6,0,2.4-1.9,2.4-4.3c0-2.1-0.6-4.3-2.4-4.3
		C122.4,21.4,121.8,23.6,121.8,25.7z"/>
	<path class="st0" d="M133.6,23.2c0-1.9,0-3.3-0.1-4.6h3.7l0.2,2.4h0.1c0.7-1.9,2.3-2.8,3.5-2.8c0.4,0,0.6,0,0.9,0.1v4
		c-0.3-0.1-0.6-0.1-1.1-0.1c-1.4,0-2.5,0.8-2.8,2.2c-0.1,0.3-0.1,0.7-0.1,1.1v7.2h-4.2V23.2z"/>
	<path class="st0" d="M151.3,32.8l-0.2-1.4H151c-0.9,1.1-2.2,1.7-3.8,1.7c-2.6,0-4.3-2-4.3-4.3c0-3.7,3.3-5.4,7.8-5.4v-0.2
		c0-0.9-0.5-1.9-2.4-1.9c-1.4,0-2.7,0.4-3.6,1l-0.8-2.8c0.9-0.5,2.8-1.2,5.2-1.2c4.6,0,5.9,2.9,5.9,6.1v5.1c0,1.3,0.1,2.6,0.2,3.4
		H151.3z M150.8,26c-2,0-3.8,0.5-3.8,2.3c0,1.2,0.8,1.7,1.7,1.7c0.9,0,1.8-0.6,2.1-1.5c0.1-0.2,0.1-0.5,0.1-0.7V26z"/>
	<path class="st0" d="M162.7,14.6v4h3.1v3.1h-3.1v5.6c0,1.7,0.5,2.4,1.7,2.4c0.5,0,0.9-0.1,1.2-0.1l0.1,3.2
		c-0.6,0.2-1.5,0.3-2.7,0.3c-1.3,0-2.5-0.4-3.2-1.1c-0.8-0.8-1.2-2.1-1.2-4.2v-6.1h-1.8v-3.1h1.8v-3L162.7,14.6z"/>
	<path class="st0" d="M171.2,27.1c0.1,1.9,1.8,2.8,3.7,2.8c1.4,0,2.5-0.2,3.5-0.6l0.6,2.9c-1.3,0.5-3,0.8-4.8,0.8
		c-4.5,0-7.1-2.7-7.1-7.1c0-4,2.3-7.6,6.7-7.6c4.2,0,5.9,3.3,5.9,7c0,0.8-0.1,1.5-0.1,1.8H171.2z M175.9,24.2c0-1.3-0.5-3-2.2-3
		c-1.7,0-2.4,1.7-2.4,3H175.9z"/>
	<path class="st0" d="M192.6,32.8l-0.2-1.9h-0.1c-0.6,1.1-2,2.2-3.9,2.2c-2.5,0-3.8-1.8-3.8-3.8c0-3.3,2.8-5.1,7.7-5.1v-0.4
		c0-1.7-0.3-4.1-3.2-4.1c-1,0-2.2,0.3-3.1,0.9l-0.4-1c1-0.7,2.4-1.1,3.7-1.1c3.4,0,4.4,2.4,4.4,5.2v5.8c0,1.1,0,2.2,0.2,3.3H192.6z
		 M192.3,25.3c-2.4-0.1-6.2,0.3-6.2,3.7c0,2,1.2,2.9,2.5,2.9c2,0,3.2-1.3,3.6-2.8c0.1-0.3,0.1-0.6,0.1-0.8V25.3z"/>
	<path class="st0" d="M206.4,32.3c-0.6,0.3-1.8,0.8-3.5,0.8c-3.6,0-6.1-2.8-6.1-7.1c0-4.2,2.6-7.4,6.5-7.4c1.4,0,2.6,0.4,3.1,0.8
		l-0.5,1.1c-0.6-0.3-1.5-0.7-2.8-0.7c-3.4,0-5,3-5,6.2c0,3.7,2,6,4.9,6c1.4,0,2.3-0.4,3-0.7L206.4,32.3z"/>
	<path class="st0" d="M217.9,32.3c-0.6,0.3-1.8,0.8-3.5,0.8c-3.6,0-6.1-2.8-6.1-7.1c0-4.2,2.6-7.4,6.5-7.4c1.4,0,2.6,0.4,3.1,0.8
		l-0.5,1.1c-0.6-0.3-1.5-0.7-2.8-0.7c-3.4,0-5,3-5,6.2c0,3.7,2,6,4.9,6c1.4,0,2.3-0.4,3-0.7L217.9,32.3z"/>
	<path class="st0" d="M231.4,25.7c0,5.2-3.1,7.4-5.9,7.4c-3.1,0-5.7-2.6-5.7-7.2c0-4.9,2.8-7.4,5.9-7.4
		C229,18.6,231.4,21.2,231.4,25.7z M221.1,25.9c0,3.1,1.7,6.1,4.4,6.1c2.7,0,4.5-3,4.5-6.2c0-2.4-1.1-6.1-4.4-6.1
		C222.4,19.7,221.1,23.1,221.1,25.9z"/>
	<path class="st0" d="M244.4,29.4c0,1.3,0.1,2.4,0.1,3.4h-1.2l-0.1-2.2h-0.1c-0.6,1.1-2,2.5-4.2,2.5c-1.9,0-4.3-1.2-4.3-5.8v-8.4
		h1.3V27c0,2.9,0.8,5,3.3,5c1.9,0,3.2-1.5,3.6-2.7c0.1-0.4,0.2-1,0.2-1.5v-8.9h1.3V29.4z"/>
	<path class="st0" d="M248.7,22.2c0-1.4-0.1-2.2-0.1-3.3h1.2l0.1,2.3h0.1c0.7-1.4,2.2-2.6,4.3-2.6c1.4,0,4.4,0.8,4.4,5.5v8.7h-1.3
		v-8.5c0-2.4-0.8-4.6-3.4-4.6c-1.7,0-3.2,1.3-3.7,3.1c-0.1,0.3-0.2,0.8-0.2,1.2v8.7h-1.3V22.2z"/>
	<path class="st0" d="M264.6,14.9v3.9h3.6V20h-3.6v9.2c0,1.8,0.6,2.8,1.9,2.8c0.6,0,1-0.1,1.4-0.2l0.2,1c-0.4,0.2-1,0.3-1.7,0.3
		c-0.9,0-1.7-0.3-2.2-0.9c-0.6-0.7-0.8-1.8-0.8-3.3V20H261v-1.1h2.2v-3.5L264.6,14.9z"/>
	<path class="st0" d="M272.6,15c0,0.7-0.4,1.2-1.1,1.2c-0.6,0-1-0.5-1-1.2c0-0.6,0.4-1.2,1-1.2C272.2,13.8,272.6,14.4,272.6,15z
		 M270.9,32.8V18.9h1.3v13.9H270.9z"/>
	<path class="st0" d="M276.6,22.2c0-1.4-0.1-2.2-0.1-3.3h1.2l0.1,2.3h0.1c0.7-1.4,2.2-2.6,4.3-2.6c1.4,0,4.4,0.8,4.4,5.5v8.7h-1.3
		v-8.5c0-2.4-0.8-4.6-3.4-4.6c-1.7,0-3.2,1.3-3.7,3.1c-0.1,0.3-0.2,0.8-0.2,1.2v8.7h-1.3V22.2z"/>
	<path class="st0" d="M300.8,18.9c-0.1,1-0.1,2.1-0.1,3.8v8.1c0,3.7-0.6,5.3-1.7,6.4c-1.1,1.1-2.8,1.6-4.3,1.6c-1.5,0-3-0.4-3.9-1
		l0.5-1.1c0.8,0.5,2.1,1,3.7,1c2.6,0,4.4-1.4,4.4-5.4v-1.9h-0.1c-0.6,1.3-2.1,2.4-4.2,2.4c-3.1,0-5.4-2.8-5.4-6.9
		c0-5.1,3-7.4,5.7-7.4c2.4,0,3.6,1.4,4.1,2.4h0.1l0.1-2.2H300.8z M299.3,24c0-0.5,0-0.9-0.1-1.2c-0.5-1.5-1.7-3.1-3.8-3.1
		c-2.6,0-4.4,2.4-4.4,6.1c0,3.5,1.6,5.9,4.3,5.9c1.5,0,3.1-0.9,3.7-3c0.1-0.5,0.2-1,0.2-1.5V24z"/>
</g>
<g>
	<rect y="0" class="st1" width="51" height="51"/>
	<g>
		<g>
			<path class="st2" d="M44.7,39.7c0-1.4-0.5-2.7-1.5-3.7c-1-1-2.3-1.5-3.7-1.5c-1.4,0-2.7,0.5-3.7,1.5c-1,1-1.5,2.3-1.5,3.7
				c0,1.4,0.5,2.7,1.5,3.7c2,2,5.3,2,7.4,0C44.2,42.3,44.7,41,44.7,39.7z"/>
		</g>
		<g>
			<path class="st2" d="M17,11.4c0-1.4-0.5-2.7-1.5-3.7c-1-1-2.3-1.5-3.7-1.5c-1.4,0-2.7,0.5-3.7,1.5c-1,1-1.5,2.3-1.5,3.7
				c0,1.4,0.5,2.7,1.5,3.7c1,1,2.3,1.5,3.7,1.5c1.4,0,2.7-0.5,3.7-1.5C16.4,14.1,17,12.8,17,11.4z"/>
		</g>
		<path class="st2" d="M16.8,39.4c0-1.4-0.5-2.7-1.5-3.7c-2-2-5.3-2-7.4,0c-1,1-1.5,2.3-1.5,3.7c0,1.4,0.5,2.7,1.5,3.7
			c2,2,5.3,2,7.4,0C16.3,42.1,16.8,40.8,16.8,39.4z"/>
		<g>
			<path class="st2" d="M44.7,11.5c0-1.4-0.5-2.7-1.5-3.7c-1-1-2.3-1.5-3.7-1.5c-1.4,0-2.7,0.5-3.7,1.5c-0.2,0.2-0.4,0.4-0.6,0.7
				c-0.1,0.1-0.1,0.2-0.2,0.3C35,9,34.9,9.2,34.8,9.4c0,0.1-0.1,0.2-0.1,0.3c-0.1,0.2-0.1,0.4-0.2,0.6c0,0,0,0.1,0,0.1
				c0,0,0,0.1,0,0.1l-0.1,1.2c0,0.1,0,0.3,0,0.5l0,0.1c0,0,0,0.1,0,0.1l0,0l0,0.1v0c0,0.1,0,0.2,0,0.3c0,2-0.9,4-2.3,5.4
				c-1.5,1.4-3.5,2.2-5.4,2.2l-0.1,0l-0.1,0c-0.1,0-0.1,0-0.2,0c-0.1,0-0.1,0-0.2,0l-0.1,0c-0.1,0-0.2,0-0.3,0l-1.2,0.1
				c0,0-0.1,0-0.1,0l-0.1,0c-0.2,0.1-0.4,0.1-0.7,0.2c-0.1,0-0.2,0.1-0.3,0.1c-0.2,0.1-0.4,0.2-0.6,0.3c-0.1,0-0.2,0.1-0.2,0.2
				c-0.3,0.2-0.5,0.4-0.7,0.6c-1,1-1.5,2.3-1.5,3.7c0,1.4,0.5,2.7,1.5,3.7c2,2,5.3,2,7.4,0c0.2-0.2,0.4-0.4,0.6-0.7
				c0.1-0.1,0.1-0.2,0.2-0.3c0.1-0.2,0.2-0.4,0.3-0.6c0-0.1,0.1-0.2,0.1-0.3c0.1-0.2,0.1-0.4,0.2-0.6l0-0.1c0,0,0-0.1,0-0.1l0.1-1.2
				c0-0.1,0-0.3,0-0.4l0-0.1c0,0,0-0.1,0-0.1l0,0l0-0.1v0c0-0.1,0-0.2,0-0.3c0-2,0.8-4,2.3-5.4c1.5-1.4,3.5-2.2,5.4-2.2l0.1,0l0.1,0
				c0.1,0,0.1,0,0.2,0c0.1,0,0.1,0,0.2,0c0,0,0.1,0,0.2,0c0.1,0,0.2,0,0.2,0h0l1.1-0.1c0,0,0.2,0,0.2-0.1c0.2-0.1,0.5-0.1,0.6-0.2
				c0.1,0,0.2-0.1,0.3-0.1c0.2-0.1,0.4-0.2,0.6-0.3c0.1,0,0.2-0.1,0.3-0.2c0.3-0.2,0.5-0.4,0.7-0.6C44.2,14.2,44.7,12.9,44.7,11.5
				L44.7,11.5z"/>
		</g>
		<path class="st2" d="M44.7,25.6c0-1.4-0.5-2.7-1.5-3.7c-1-1-2.3-1.5-3.7-1.5c-1.4,0-2.7,0.5-3.7,1.5c-0.2,0.2-0.4,0.4-0.6,0.7
			c-0.1,0.1-0.1,0.2-0.2,0.2c-0.1,0.2-0.2,0.4-0.3,0.6c0,0.1-0.1,0.2-0.1,0.3c-0.1,0.2-0.1,0.4-0.2,0.6c0,0-0.1,0.2-0.1,0.2
			l-0.1,1.2c0,0.1,0,0.3,0,0.4l0,0.1c0,0.1,0,0.1,0,0.2c0,0,0,0,0,0.1l0,0l0,0c0,0.1,0,0.2,0,0.3c0,2-0.8,4-2.3,5.4
			c-1.5,1.4-3.5,2.2-5.4,2.2l-0.2,0l0,0c0,0,0,0,0,0c-0.1,0-0.1,0-0.2,0l-0.2,0c-0.1,0-0.2,0-0.3,0l-1.1,0.1c0,0-0.2,0-0.2,0.1
			c-0.3,0.1-0.5,0.1-0.6,0.2c-0.1,0-0.2,0.1-0.3,0.1c-0.2,0.1-0.4,0.2-0.6,0.3l0,0c-0.1,0-0.1,0.1-0.2,0.1c-0.3,0.2-0.5,0.4-0.7,0.6
			c-1,1-1.5,2.3-1.5,3.7c0,1.4,0.5,2.7,1.5,3.7c2,2,5.3,2,7.4,0c0.2-0.2,0.4-0.4,0.6-0.7c0-0.1,0.1-0.1,0.1-0.2l0.1-0.1
			c0.1-0.2,0.2-0.4,0.3-0.5c0-0.1,0.1-0.2,0.1-0.3c0.1-0.2,0.1-0.4,0.2-0.6c0-0.1,0-0.1,0-0.1c0,0,0-0.1,0-0.1l0.1-1.2
			c0-0.2,0-0.4-0.1-0.5c0-0.1,0-0.1,0-0.2c0,0,0,0,0-0.1l0-0.1c0-0.1,0-0.2,0-0.3c0-2,0.9-4,2.3-5.4c1.5-1.4,3.5-2.2,5.5-2.2l0.1,0
			l0.1,0c0.1,0,0.1,0,0.2,0c0.1,0,0.1,0,0.2,0c0,0,0.1,0,0.2,0c0.1,0,0.2,0,0.3,0l1.1-0.1c0,0,0.2-0.1,0.2-0.1
			c0.2-0.1,0.5-0.1,0.7-0.2c0.1,0,0.2-0.1,0.3-0.1l0,0c0.2-0.1,0.4-0.2,0.5-0.3c0.1-0.1,0.2-0.1,0.3-0.2c0.3-0.2,0.5-0.4,0.7-0.6
			C44.2,28.3,44.7,27,44.7,25.6L44.7,25.6z"/>
		<path class="st2" d="M30.7,11.5c0-1.4-0.5-2.7-1.5-3.7c-1-1-2.3-1.5-3.7-1.5c-1.4,0-2.7,0.5-3.7,1.5c-0.2,0.2-0.4,0.4-0.6,0.7
			c-0.1,0.1-0.1,0.2-0.2,0.3c-0.1,0.2-0.2,0.4-0.3,0.6c0,0.1-0.1,0.2-0.1,0.3c-0.1,0.2-0.1,0.4-0.2,0.6l0,0.1c0,0,0,0,0,0.1
			l-0.1,1.2c0,0.2,0,0.3,0.1,0.5l0,0c0,0.1,0,0.1,0,0.2c0,0,0,0,0,0.1l0,0.1l0,0c0,0.1,0,0.2,0,0.3c0,2-0.8,4-2.3,5.4
			c-1.5,1.4-3.5,2.2-5.5,2.2l-0.1,0l-0.1,0c-0.1,0-0.1,0-0.2,0c-0.1,0-0.1,0-0.2,0l-0.2,0c-0.1,0-0.2,0-0.3,0l-1.1,0.1l0,0h0
			c0,0-0.2,0-0.2,0c-0.3,0.1-0.5,0.1-0.7,0.2c-0.1,0-0.2,0.1-0.3,0.1C9.2,20.8,9,20.9,8.8,21l0,0c-0.1,0-0.1,0.1-0.2,0.1
			c-0.3,0.2-0.5,0.4-0.7,0.6c-1,1-1.5,2.3-1.5,3.7c0,1.4,0.5,2.7,1.5,3.7c2,2,5.3,2,7.4,0c0.2-0.2,0.4-0.4,0.6-0.7
			c0.1-0.1,0.1-0.1,0.1-0.2l0,0c0.1-0.2,0.2-0.4,0.3-0.6c0-0.1,0.1-0.2,0.1-0.3c0.1-0.2,0.1-0.4,0.2-0.6c0,0,0-0.1,0-0.1
			c0,0,0-0.1,0-0.1l0.1-1.2c0-0.1,0-0.3,0-0.5l0-0.1c0-0.1,0-0.1,0-0.2c0,0,0,0,0-0.1l0,0l0-0.1c0-0.1,0-0.2,0-0.3
			c0-2,0.8-4,2.3-5.4c1.5-1.4,3.5-2.2,5.5-2.2l0.1,0l0.1,0c0.1,0,0.1,0,0.2,0c0.1,0,0.1,0,0.2,0c0,0,0.1,0,0.2,0c0.1,0,0.2,0,0.3,0
			l1.1-0.1c0,0,0.1,0,0.1,0l0.1,0c0.3-0.1,0.5-0.1,0.7-0.2c0.1,0,0.2-0.1,0.3-0.1c0.2-0.1,0.4-0.2,0.6-0.3c0.1-0.1,0.2-0.1,0.3-0.2
			c0.3-0.2,0.5-0.4,0.7-0.6C30.1,14.2,30.7,12.9,30.7,11.5L30.7,11.5z"/>
	</g>
</g>
</svg>
